<svg xmlns="http://www.w3.org/2000/svg" viewBox="0 0 61 62" height="44" width="44"><g fill="none" fill-rule="evenodd" transform="translate(-4 -4)"><path d="M0 0h70v70H0z"></path><g fill-rule="nonzero" stroke-width="1.12"><path fill="#FFF" stroke="#1D4B70" d="M26.036 35.883v18.529h10.588v-10.58z"></path><path stroke="#1D4B70" d="M40.153 44.247v10.165H54.39V30.129z"></path><path fill="#FFF" stroke="#1D4B70" d="M15.447 44.247v10.165h7.06V37.188z"></path><path fill="#66C4AC" stroke="#FFF" d="M63.212 22.087c.666 0 1.205-.539 1.205-1.205v-7.059a1.205 1.205 0 00-1.205-1.205h-7.059a1.204 1.204 0 100 2.41h4.156l-22.034 21.91-.388-.29-12.895-9.671a1.193 1.193 0 00-1.573.112L11.358 39.151V6.647a1.204 1.204 0 10-2.41 0v13.03H6.506a1.204 1.204 0 100 2.41h2.442v11.708H6.506a1.204 1.204 0 100 2.41h2.442v11.708H6.506a1.204 1.204 0 100 2.41h2.442v9.383c0 .666.539 1.205 1.205 1.205h9.384v2.442a1.204 1.204 0 102.41 0v-2.442h11.707v2.442a1.204 1.204 0 102.41 0v-2.442h11.708v2.442a1.204 1.204 0 102.41 0v-2.442h13.03a1.204 1.204 0 100-2.41H11.358V42.558l13.026-13.026.388.291 12.895 9.67c.476.36 1.15.312 1.574-.113l22.766-22.643v4.145c0 .666.539 1.205 1.205 1.205z"></path></g><circle cx="25.375" cy="25.375" r="20.125" fill="#0070A8" fill-opacity="0.1"></circle><circle cx="53.375" cy="46.375" r="9.625" fill="#0070A8" fill-opacity="0.1"></circle></g></svg>