<svg xmlns="http://www.w3.org/2000/svg" viewBox="0 0 62 61" height="44" width="44"><g transform="translate(-3 -3)" fill="none" fill-rule="evenodd"><g fill="#FFF" fill-rule="nonzero"><path stroke="#1D4B70" stroke-width="1.12" d="M48.006 57.411h-27.62a4.624 4.624 0 00-4.618 4.619c0 .645.521 1.166 1.166 1.166h34.525c.645 0 1.166-.521 1.166-1.166a4.624 4.624 0 00-4.619-4.619z"></path><path stroke="#66C4AC" stroke-width="2.24" d="M63.568 33.749l-6.905-20.715c-.004-.012-.017-.015-.021-.026-.008-.023-.003-.046-.013-.068a1.726 1.726 0 00-2.243-.963c-4.866 1.948-10.292 1.99-15.21.26a5.17 5.17 0 00-3.253-3.518V6.56a1.725 1.725 0 10-3.453 0v2.16a5.17 5.17 0 00-3.254 3.518c-4.917 1.729-10.343 1.686-15.209-.261a1.724 1.724 0 00-2.244.962c-.009.023-.004.046-.012.069-.004.011-.018.014-.021.026L4.825 33.749c-.025.073-.098.488-.077.707a8.601 8.601 0 008.618 8.47c4.697 0 8.514-3.776 8.613-8.45a2.645 2.645 0 00-.07-.727l-5.84-17.52c1.952.48 3.938.748 5.929.748a25.62 25.62 0 007.55-1.158 5.186 5.186 0 001.547 1.883l-3.17 28.792h12.542l-3.17-28.792a5.186 5.186 0 001.548-1.883 25.62 25.62 0 007.55 1.158c1.99 0 3.977-.268 5.93-.749l-5.84 17.52c-.025.074-.098.49-.077.708a8.6 8.6 0 008.618 8.47c4.697 0 8.514-3.776 8.613-8.45a2.637 2.637 0 00-.07-.727zm-45.691-1.18H8.856l4.51-13.53 4.511 13.53zm16.32-17.263a1.727 1.727 0 010-3.452 1.727 1.727 0 010 3.452zM50.515 32.57l4.51-13.53 4.51 13.53h-9.02z"></path><path stroke="#1D4B70" stroke-width="1.12" d="M23.301 52.839h21.79a4.595 4.595 0 00-3.99-2.333h-13.81a4.595 4.595 0 00-3.99 2.333z"></path></g><path d="M0 0h70v70H0z"></path><circle cx="23.625" cy="41.125" r="20.125" fill="#0070A8" fill-opacity="0.1" transform="matrix(1 0 0 -1 0 82.25)"></circle><circle cx="51.625" cy="20.125" r="9.625" fill="#0070A8" fill-opacity="0.1" transform="matrix(1 0 0 -1 0 40.25)"></circle></g></svg>