<svg width="100" height="25"><g><line class="spk43Opacity3" x1="0" y1="12.040000000000026" x2="100" y2="12.040000000000026" fill="transparent" shapeRendering="crispEdges" stroke="var(--subText)" stroke-width="1.5" pointerEvents="none" stroke-dasharray="4.5,1.5"></line><path class="visx-linepath" d="M0,1L1.3888888888888888,4.105000000000054L2.7777777777777777,4.220000000000077L4.166666666666667,4.105000000000054L5.555555555555555,5.024999999999999L6.944444444444445,6.980000000000054L8.333333333333334,9.05L9.722222222222221,9.280000000000053L11.11111111111111,8.935000000000105L12.5,10.085000000000104L13.88888888888889,9.510000000000105L15.277777777777779,9.625L16.666666666666668,9.625L18.055555555555557,11.695000000000078L19.444444444444443,12.155000000000053L20.833333333333332,11.810000000000105L22.22222222222222,13.075L23.61111111111111,11.465000000000027L25,10.430000000000053L26.38888888888889,11.35L27.77777777777778,11.695000000000078L29.166666666666668,11.925L30.555555555555557,12.730000000000052L31.944444444444443,12.845000000000079L33.333333333333336,15.490000000000027L34.72222222222222,18.710000000000104L36.111111111111114,18.710000000000104L37.5,18.825L38.888888888888886,19.860000000000106L40.27777777777778,19.4L41.666666666666664,19.055000000000053L43.05555555555556,19.630000000000052L44.44444444444444,21.585000000000104L45.833333333333336,24L47.22222222222222,23.425L48.611111111111114,21.010000000000105L50,18.480000000000054L51.388888888888886,19.515000000000025L52.77777777777778,21.7L54.166666666666664,19.860000000000106L55.55555555555556,21.240000000000027L56.94444444444444,19.17000000000008L58.333333333333336,18.135000000000105L59.72222222222222,16.410000000000103L61.111111111111114,16.87000000000008" fill="transparent" stroke-linecap="round" stroke="var(--growwRed)" stroke-width="2" stroke-opacity="0.8" shapeRendering="geometricPrecision"></path></g></svg>