<svg width="80" height="30"><g><line class="spk43Opacity3" x1="0" y1="1" x2="80" y2="1" fill="transparent" shapeRendering="crispEdges" stroke="var(--subText)" stroke-width="1.5" pointerEvents="none" stroke-dasharray="4.5,1.5"></line><path class="visx-linepath" d="M0,5.898577498614646L1.0526315789473684,7.796970256789251L2.1052631578947367,10.678182154073777L3.1578947368421053,10.072972473674515L4.2105263157894735,12.007574358027064L5.2631578947368425,12.183447256604637L6.315789473684211,11.992056161093604L7.368421052631579,15.809532606687675L8.421052631578947,19.23905412894903L9.473684210526315,19.714945501570345L10.526315789473685,18.31313504526154L11.578947368421053,15.561241455754587L12.631578947368421,20.78052835765746L13.68421052631579,20.066691298725488L14.736842105263158,18.209680399039485L15.789473684210526,19.921854794014457L16.842105263157894,22.601330131165895L17.894736842105264,22.30131165712178L18.94736842105263,24.41695917236293L20,25.07906890818387L21.05263157894737,23.584149270275443L22.105263157894736,22.653057454276926L23.157894736842106,22.803066691298607L24.210526315789473,22.859966746721042L25.263157894736842,21.92887493072252L26.31578947368421,22.12026602623318L27.36842105263158,20.635691852946806L28.42105263157895,22.720302974321037L29.473684210526315,24.10142250138573L30.526315789473685,23.522076482541983L31.57894736842105,25.23942360982836L32.63157894736842,24.179013486052273L33.68421052631579,23.470349159430953L34.73684210526316,27.21540735266951L35.78947368421053,27.189543691113993L36.8421052631579,25.47736929613902L37.89473684210526,24.908368741917702L38.94736842105263,25.74117864400519L40,24.385922778496386L41.05263157894737,24.794568631073215L42.10526315789474,25.813596896360707L43.1578947368421,26.760206909292307L44.21052631578947,24.77905043414013L45.26315789473684,22.953075928320665L46.31578947368421,20.59430999445783L47.36842105263158,20.33567337890269L48.421052631578945,21.24607426565672L49.473684210526315,21.546092739700835L50.526315789473685,21.230556068723637L51.578947368421055,20.61500092370232L52.63157894736842,18.964899316460425L53.68421052631579,20.371882505080258L54.73684210526316,20.092554960281007L55.78947368421053,20.36670977276923L56.8421052631579,19.063181230371455L57.89473684210526,17.81138001108434L58.94736842105263,16.968224644374793L60,17.00960650286339L61.05263157894737,18.16829854055051L62.10526315789474,18.866617402549398L63.1578947368421,21.892665804544578L64.21052631578948,23.697949381119557L65.26315789473684,22.275447995566267L66.3157894736842,22.637539257343466L67.36842105263158,24.711804914095644L68.42105263157895,25.823942360982763L69.47368421052632,26.00498799187136L70.52631578947368,28.73619065213383L71.57894736842105,28.022353593201483L72.63157894736842,28.73619065213383L73.6842105263158,27.587844079068766L74.73684210526316,28.658599667467286L75.78947368421052,29L76.84210526315789,27.205061888047453L77.89473684210526,27.31368926658054L78.94736842105263,28.229262885645596" fill="transparent" stroke-linecap="round" stroke="var(--growwRed)" stroke-width="2" stroke-opacity="0.8" shapeRendering="geometricPrecision"></path></g></svg>